<?xml version="1.0" standalone="no"?>
<!DOCTYPE svg PUBLIC "-//W3C//DTD SVG 20010904//EN"
 "http://www.w3.org/TR/2001/REC-SVG-20010904/DTD/svg10.dtd">
<svg version="1.0" xmlns="http://www.w3.org/2000/svg"
 width="308.000000pt" height="308.000000pt" viewBox="0 0 308.000000 308.000000"
 preserveAspectRatio="xMidYMid meet">

<g transform="translate(0.000000,308.000000) scale(0.100000,-0.100000)"
fill="#000000" stroke="none">
<path d="M1227 3010 c-90 -24 -172 -66 -208 -107 -36 -41 -37 -65 -4 -91 14
-11 25 -24 24 -28 0 -5 -32 -24 -70 -42 -115 -55 -195 -151 -235 -281 -8 -25
-28 -104 -44 -176 -17 -71 -39 -159 -51 -195 -57 -181 -54 -157 -54 -465 0
-327 3 -312 -82 -439 -69 -104 -96 -175 -91 -244 9 -110 84 -169 273 -217 167
-43 204 -56 258 -92 59 -40 117 -47 159 -19 57 37 90 192 90 411 -1 224 -17
281 -141 513 -15 29 -33 77 -40 108 -10 42 -18 58 -37 66 -52 24 -53 131 -2
155 14 7 44 44 66 81 22 38 61 87 85 109 51 47 96 57 231 51 56 -2 80 1 83 9
7 20 -46 35 -128 36 -59 0 -86 -4 -119 -21 -24 -12 -46 -20 -48 -18 -2 2 4 19
13 37 12 22 20 73 25 158 5 69 11 134 15 143 14 35 70 50 163 43 66 -6 103 -3
151 9 34 9 84 16 109 16 49 0 118 -26 139 -51 25 -31 112 -208 118 -243 7 -36
7 -37 -18 -25 -43 20 -195 -18 -226 -55 -25 -30 16 -29 114 4 83 28 100 30
125 20 32 -13 50 -65 50 -144 0 -35 6 -51 25 -70 30 -31 33 -83 7 -117 -15
-19 -20 -49 -26 -142 -7 -133 -20 -196 -53 -249 -20 -33 -23 -51 -23 -142 l0
-104 68 -22 c37 -12 95 -35 130 -51 35 -16 67 -29 72 -29 25 0 52 -65 64 -152
12 -82 16 -94 45 -120 23 -21 42 -28 71 -28 80 0 170 119 170 226 0 29 -11 94
-25 145 -14 52 -30 110 -35 129 -15 57 -11 103 12 140 57 93 61 104 60 171 0
120 -59 203 -226 318 -112 78 -144 112 -177 188 -28 65 -50 239 -43 338 12
169 -27 278 -138 389 -83 82 -179 135 -298 166 -99 26 -276 26 -373 0z"/>
<path d="M1650 1621 c-8 -6 -32 -11 -53 -11 -22 0 -53 -10 -77 -25 -22 -14
-44 -25 -49 -25 -5 0 -14 -6 -20 -13 -16 -20 24 -53 82 -68 93 -23 186 5 231
70 30 42 32 57 11 65 -32 12 -111 16 -125 7z"/>
<path d="M1305 10 c-3 -5 3 -10 14 -10 12 0 21 5 21 10 0 6 -6 10 -14 10 -8 0
-18 -4 -21 -10z"/>
</g>
</svg>
